<svg id="Layer_2" data-name="Layer 2" xmlns="http://www.w3.org/2000/svg" viewBox="0 0 429.5 871.04">
      <defs>
        <style>
          .cls-1 {
            fill: #2f79f2;
          }
          .cls-1, .cls-2, .cls-3 {
            stroke-width: 0px;
          }
          .cls-2 {
            fill: #d6d6d6;
          }
          .cls-3 {
            fill: #3793f7;
          }
        </style>
      </defs>
      <g id="Objects">
        <g>
          <path class="cls-2" d="M247.66,359.93v356.46c0,51.32-13.66,114.66-26.99,150.53-2.04,5.5-9.8,5.5-11.84,0-13.33-35.87-26.99-99.2-26.99-150.53v-356.46h65.83Z"/>
          <circle class="cls-1" cx="214.75" cy="214.75" r="214.75"/>
          <path class="cls-3" d="M213.99,72.56c3.75,17.37-6.62,34.8-23.7,39.68-21.11,6.03-40.4,16.23-58.93,30.17-26,19.57-46.41,46.36-58.88,76.41-1.99,4.8-6.64,7.97-11.83,8.13h0c-7.65.24-13.99-6-13.71-13.65,1.54-42.45,18.32-84.29,46.86-115.8,21.34-23.56,46.92-41.15,75.89-50.92,19.31-6.51,39.88,5.38,44.16,25.3.05.23.1.45.15.68Z"/>
        </g>
      </g>
    </svg>